# Blender v2.76 (sub 0) OBJ File: 'gun_rocketrifle.blend'
# www.blender.org
mtllib item_rocket.mtl
o Cylinder
v 0.000000 -0.018000 0.033863
v -0.000000 -0.018000 -0.035721
v 0.006888 -0.016630 0.033863
v 0.006888 -0.016630 -0.035721
v 0.012728 -0.012728 0.033863
v 0.012728 -0.012728 -0.035721
v 0.016630 -0.006888 0.033863
v 0.016630 -0.006888 -0.035721
v 0.018000 -0.000000 0.033863
v 0.018000 0.000000 -0.035721
v 0.016630 0.006888 0.033863
v 0.016630 0.006888 -0.035721
v 0.012728 0.012728 0.033863
v 0.012728 0.012728 -0.035721
v 0.006888 0.016630 0.033863
v 0.006888 0.016630 -0.035721
v 0.000000 0.018000 0.033863
v 0.000000 0.018000 -0.035721
v -0.006888 0.016630 0.033863
v -0.006888 0.016630 -0.035721
v -0.012728 0.012728 0.033863
v -0.012728 0.012728 -0.035721
v -0.016630 0.006888 0.033863
v -0.016630 0.006888 -0.035721
v -0.018000 -0.000000 0.033863
v -0.018000 0.000000 -0.035721
v -0.016630 -0.006888 0.033863
v -0.016630 -0.006888 -0.035721
v -0.012728 -0.012728 0.033863
v -0.012728 -0.012728 -0.035721
v -0.006888 -0.016630 0.033863
v -0.006888 -0.016630 -0.035721
v 0.000000 -0.007097 0.033863
v 0.002716 -0.006557 0.033863
v 0.005019 -0.005019 0.033863
v 0.006557 -0.002716 0.033863
v 0.007097 -0.000000 0.033863
v 0.006557 0.002716 0.033863
v 0.005019 0.005019 0.033863
v 0.002716 0.006557 0.033863
v 0.000000 0.007097 0.033863
v -0.002716 0.006557 0.033863
v -0.005019 0.005019 0.033863
v -0.006557 0.002716 0.033863
v -0.007097 -0.000000 0.033863
v -0.006557 -0.002716 0.033863
v -0.005019 -0.005019 0.033863
v -0.002716 -0.006557 0.033863
v 0.000000 -0.007097 0.041366
v 0.002716 -0.006557 0.041366
v 0.005019 -0.005019 0.041366
v 0.006557 -0.002716 0.041366
v 0.007097 -0.000000 0.041366
v 0.006557 0.002716 0.041366
v 0.005019 0.005019 0.041366
v 0.002716 0.006557 0.041366
v 0.000000 0.007097 0.041366
v -0.002716 0.006557 0.041366
v -0.005019 0.005019 0.041366
v -0.006557 0.002716 0.041366
v -0.007097 -0.000000 0.041366
v -0.006557 -0.002716 0.041366
v -0.005019 -0.005019 0.041366
v -0.002716 -0.006557 0.041366
v 0.000000 -0.013931 0.055657
v 0.005331 -0.012870 0.055657
v 0.009851 -0.009851 0.055657
v 0.012870 -0.005331 0.055657
v 0.013931 -0.000000 0.055657
v 0.012870 0.005331 0.055657
v 0.009851 0.009851 0.055657
v 0.005331 0.012870 0.055657
v 0.000000 0.013931 0.055657
v -0.005331 0.012870 0.055657
v -0.009851 0.009851 0.055657
v -0.012870 0.005331 0.055657
v -0.013931 -0.000000 0.055657
v -0.012870 -0.005331 0.055657
v -0.009851 -0.009851 0.055657
v -0.005331 -0.012870 0.055657
v 0.000000 -0.010646 0.041366
v 0.002716 -0.009836 0.041366
v 0.002716 0.009836 0.041366
v 0.000000 0.010646 0.041366
v -0.002716 0.009836 0.041366
v -0.002716 -0.009836 0.041366
v 0.000000 -0.020896 0.055657
v 0.005331 -0.019306 0.055657
v 0.005331 0.019306 0.055657
v 0.000000 0.020896 0.055657
v -0.005331 0.019306 0.055657
v -0.005331 -0.019306 0.055657
v 0.009836 -0.002716 0.041366
v 0.010646 -0.000000 0.041366
v 0.009836 0.002716 0.041366
v -0.009836 0.002716 0.041366
v -0.010646 -0.000000 0.041366
v -0.009836 -0.002716 0.041366
v 0.019306 -0.005331 0.055657
v 0.020896 -0.000000 0.055657
v 0.019306 0.005331 0.055657
v -0.019306 0.005331 0.055657
v -0.020896 -0.000000 0.055657
v -0.019306 -0.005331 0.055657
vt 0.000000 -0.000000
vt 1.000000 0.000000
vt 1.000000 1.000000
vt 0.691342 0.038060
vt 0.038060 0.308658
vt 0.961940 0.691342
vt 0.000000 1.000000
vt 0.308659 0.961940
vt 0.500000 1.000000
vt 0.691342 0.961940
vt 0.853553 0.853553
vt 1.000000 0.500000
vt 0.961940 0.308658
vt 0.853553 0.146447
vt 0.500000 0.000000
vt 0.308658 0.038060
vt 0.146447 0.146446
vt 0.000000 0.500000
vt 0.038060 0.691342
vt 0.146447 0.853554
vn 0.000000 -0.746200 -0.665700
vn 0.285500 -0.689400 -0.665700
vn 0.285500 -0.689400 0.665700
vn 0.527600 -0.527600 -0.665700
vn 0.527600 -0.527600 0.665700
vn 0.689400 -0.285500 -0.665700
vn 0.689400 -0.285500 0.665700
vn 0.746200 0.000000 -0.665700
vn 0.746200 0.000000 0.665700
vn 0.689400 0.285500 -0.665700
vn 0.689400 0.285500 0.665700
vn 0.527600 0.527600 -0.665700
vn 0.527600 0.527600 0.665700
vn 0.285500 0.689400 -0.665700
vn 0.285500 0.689400 0.665700
vn 0.000000 0.746200 -0.665700
vn 0.000000 0.746200 0.665700
vn -0.285500 0.689400 -0.665700
vn -0.285500 0.689400 0.665700
vn -0.527600 0.527600 -0.665700
vn -0.527600 0.527600 0.665700
vn -0.689400 0.285500 -0.665700
vn -0.689400 0.285500 0.665700
vn -0.746200 0.000000 -0.665700
vn -0.746200 0.000000 0.665700
vn -0.689400 -0.285500 -0.665700
vn -0.689400 -0.285500 0.665700
vn -0.527600 -0.527600 -0.665700
vn -0.527600 -0.527600 0.665700
vn -0.285500 -0.689400 -0.665700
vn 0.000000 -0.746200 0.665700
vn -0.285500 -0.689400 0.665700
vn 0.607100 -0.251500 0.753700
vn 0.464600 -0.464600 0.753700
vn -0.657100 0.000000 0.753700
vn -0.657100 0.000000 -0.753700
vn -0.724400 0.558200 -0.404600
vn 0.000000 0.657100 0.753700
vn 0.251500 0.607100 0.753700
vn 0.251500 -0.607100 0.753700
vn 0.000000 -0.657100 0.753700
vn -0.607100 -0.251500 0.753700
vn 0.464600 0.464600 0.753700
vn 0.607100 0.251500 0.753700
vn -0.607100 0.251500 0.753700
vn -0.251500 -0.607100 0.753700
vn 0.657100 0.000000 0.753700
vn -0.251500 0.607100 0.753700
vn -0.464600 -0.464600 0.753700
vn -0.464600 0.464600 0.753700
vn 0.688600 -0.688600 -0.227300
vn 0.616100 -0.616100 0.490600
vn 0.629300 -0.261200 0.731900
vn 0.724400 0.558200 -0.404600
vn 0.657100 0.000000 -0.753700
vn -0.724400 -0.558200 -0.404600
vn 0.688600 0.688600 -0.227300
vn -0.688600 -0.688600 -0.227300
vn 0.558200 0.724400 -0.404600
vn -0.558200 -0.724400 -0.404600
vn 0.000000 0.657100 -0.753700
vn 0.558200 -0.724400 -0.404600
vn 0.000000 -0.657100 -0.753700
vn -0.558200 0.724400 -0.404600
vn -0.688600 0.688600 -0.227300
vn 0.724400 -0.558200 -0.404600
vn 0.629300 0.261200 0.731900
vn -0.261200 0.629300 0.731900
vn 0.261200 -0.629300 0.731900
vn -0.616100 0.616100 0.490600
vn -0.629300 0.261200 0.731900
vn -0.261200 -0.629300 0.731900
vn -0.624700 -0.674800 0.392800
vn -0.294600 -0.593500 -0.749000
vn 0.000000 0.000000 1.000000
vn -0.624700 0.674800 0.392800
vn 0.915800 0.000000 0.401500
vn 0.624700 0.674800 0.392800
vn -0.294600 0.593500 -0.749000
vn 0.616100 0.616100 0.490600
vn -0.616100 -0.616100 0.490600
vn -0.629300 -0.261200 0.731900
vn -0.593500 -0.294600 -0.749000
vn -0.674800 -0.624700 0.392800
vn 0.000000 0.915800 0.401500
vn -0.674800 0.624700 0.392800
vn 0.593500 0.294600 -0.749000
vn 0.000000 0.518200 -0.855200
vn 0.674800 0.624700 0.392800
vn 0.000000 -0.518200 -0.855200
vn 0.593500 -0.294600 -0.749000
vn 0.674800 -0.624700 0.392800
vn 0.000000 -0.915800 0.401500
vn -0.593500 0.294600 -0.749000
vn 0.518200 0.000000 -0.855200
vn 0.624700 -0.674800 0.392800
vn -0.518200 0.000000 -0.855200
vn -0.915800 0.000000 0.401500
vn 0.294600 0.593500 -0.749000
vn 0.294600 -0.593500 -0.749000
vn 0.261200 0.629300 0.731900
usemtl Material
s 1
f 2/1/1 4/2/2 3/3/3
f 4/1/2 6/2/4 5/3/5
f 6/1/4 8/2/6 7/3/7
f 8/1/6 10/2/8 9/3/9
f 10/1/8 12/2/10 11/3/11
f 12/1/10 14/2/12 13/3/13
f 14/1/12 16/2/14 15/3/15
f 16/1/14 18/2/16 17/3/17
f 18/1/16 20/2/18 19/3/19
f 20/1/18 22/2/20 21/3/21
f 22/1/20 24/2/22 23/3/23
f 24/1/22 26/2/24 25/3/25
f 26/1/24 28/2/26 27/3/27
f 28/1/26 30/2/28 29/3/29
f 22/4/20 14/5/12 30/6/28
f 32/1/30 2/2/1 1/3/31
f 30/1/28 32/2/30 31/3/32
f 7/2/7 36/3/33 35/7/34
f 45/2/35 61/3/36 60/7/37
f 17/2/17 41/3/38 40/7/39
f 3/2/3 34/3/40 33/7/41
f 25/1/25 27/2/27 46/3/42
f 13/2/13 39/3/43 38/7/44
f 21/1/21 23/2/23 44/3/45
f 1/2/31 33/3/41 48/7/46
f 7/1/7 9/2/9 37/3/47
f 17/1/17 19/2/19 42/3/48
f 29/2/29 47/3/49 46/7/42
f 5/2/5 35/3/34 34/7/40
f 13/1/13 15/2/15 40/3/39
f 25/2/25 45/3/35 44/7/45
f 11/2/11 38/3/44 37/7/47
f 19/1/19 21/2/21 43/3/50
f 29/1/29 31/2/32 48/3/46
f 51/2/51 67/3/52 66/7/53
f 38/2/44 54/3/54 53/7/55
f 46/2/42 62/3/56 61/7/36
f 39/2/43 55/3/57 54/7/54
f 46/1/42 47/2/49 63/3/58
f 40/2/39 56/3/59 55/7/57
f 47/1/49 48/2/46 64/3/60
f 41/2/38 57/3/61 56/7/59
f 33/1/41 34/2/40 50/3/62
f 48/1/46 33/2/41 49/3/63
f 42/2/48 58/3/64 57/7/61
f 34/1/40 35/2/34 51/3/51
f 43/2/50 59/3/65 58/7/64
f 36/2/33 52/3/66 51/7/51
f 44/2/45 60/3/37 59/7/65
f 37/2/47 53/3/55 52/7/66
f 72/4/67 76/5/68 68/6/69
f 59/2/65 75/3/70 74/7/71
f 52/2/66 68/3/69 67/7/52
f 60/2/37 76/3/68 75/7/70
f 78/2/72 104/3/73 98/7/74
f 77/1/75 76/2/68 102/3/76
f 69/2/75 100/3/77 101/7/78
f 76/1/68 60/2/37 96/3/79
f 54/1/54 55/2/57 71/3/80
f 63/2/58 79/3/81 78/7/72
f 56/2/59 72/3/67 71/7/80
f 63/1/58 64/2/60 80/3/82
f 80/1/82 64/2/60 86/3/83
f 65/1/75 80/2/82 92/3/84
f 73/2/75 90/3/85 91/7/86
f 72/1/67 56/2/59 83/3/87
f 84/2/88 90/3/85 89/7/89
f 81/1/90 82/2/91 88/3/92
f 81/2/90 87/3/93 92/7/84
f 84/1/88 85/2/94 91/3/86
f 74/2/71 91/3/86 85/7/94
f 49/1/63 50/2/62 82/3/91
f 57/2/61 84/3/88 83/7/87
f 57/1/61 58/2/64 85/3/94
f 65/2/75 87/3/93 88/7/92
f 66/2/53 88/3/92 82/7/91
f 49/2/63 81/3/90 86/7/83
f 73/1/75 72/2/67 89/3/89
f 94/2/95 100/3/77 99/7/96
f 97/2/97 103/3/98 102/7/76
f 94/1/95 95/2/99 101/3/78
f 97/1/97 98/2/74 104/3/73
f 53/2/55 94/3/95 93/7/100
f 77/2/75 103/3/98 104/7/73
f 53/1/55 54/2/54 95/3/99
f 61/2/36 97/3/97 96/7/79
f 68/1/69 52/2/66 93/3/100
f 69/1/75 68/2/69 99/3/96
f 70/2/101 101/3/78 95/7/99
f 61/1/36 62/2/56 98/3/74
f 1/7/31 2/1/1 3/3/3
f 3/7/3 4/1/2 5/3/5
f 5/7/5 6/1/4 7/3/7
f 7/7/7 8/1/6 9/3/9
f 9/7/9 10/1/8 11/3/11
f 11/7/11 12/1/10 13/3/13
f 13/7/13 14/1/12 15/3/15
f 15/7/15 16/1/14 17/3/17
f 17/7/17 18/1/16 19/3/19
f 19/7/19 20/1/18 21/3/21
f 21/7/21 22/1/20 23/3/23
f 23/7/23 24/1/22 25/3/25
f 25/7/25 26/1/24 27/3/27
f 27/7/27 28/1/26 29/3/29
f 6/8/4 4/9/2 2/10/1
f 2/10/1 32/11/30 30/6/28
f 30/6/28 28/12/26 26/13/24
f 26/13/24 24/14/22 22/4/20
f 22/4/20 20/15/18 18/16/16
f 18/16/16 16/17/14 22/4/20
f 14/5/12 12/18/10 10/19/8
f 10/19/8 8/20/6 14/5/12
f 6/8/4 2/10/1 30/6/28
f 30/6/28 26/13/24 22/4/20
f 22/4/20 16/17/14 14/5/12
f 14/5/12 8/20/6 6/8/4
f 6/8/4 30/6/28 14/5/12
f 31/7/32 32/1/30 1/3/31
f 29/7/29 30/1/28 31/3/32
f 5/1/5 7/2/7 35/7/34
f 44/1/45 45/2/35 60/7/37
f 15/1/15 17/2/17 40/7/39
f 1/1/31 3/2/3 33/7/41
f 45/7/35 25/1/25 46/3/42
f 11/1/11 13/2/13 38/7/44
f 43/7/50 21/1/21 44/3/45
f 31/1/32 1/2/31 48/7/46
f 36/7/33 7/1/7 37/3/47
f 41/7/38 17/1/17 42/3/48
f 27/1/27 29/2/29 46/7/42
f 3/1/3 5/2/5 34/7/40
f 39/7/43 13/1/13 40/3/39
f 23/1/23 25/2/25 44/7/45
f 9/1/9 11/2/11 37/7/47
f 42/7/48 19/1/19 43/3/50
f 47/7/49 29/1/29 48/3/46
f 50/1/62 51/2/51 66/7/53
f 37/1/47 38/2/44 53/7/55
f 45/1/35 46/2/42 61/7/36
f 38/1/44 39/2/43 54/7/54
f 62/7/56 46/1/42 63/3/58
f 39/1/43 40/2/39 55/7/57
f 63/7/58 47/1/49 64/3/60
f 40/1/39 41/2/38 56/7/59
f 49/7/63 33/1/41 50/3/62
f 64/7/60 48/1/46 49/3/63
f 41/1/38 42/2/48 57/7/61
f 50/7/62 34/1/40 51/3/51
f 42/1/48 43/2/50 58/7/64
f 35/1/34 36/2/33 51/7/51
f 43/1/50 44/2/45 59/7/65
f 36/1/33 37/2/47 52/7/66
f 80/8/82 65/9/75 68/6/69
f 66/10/53 67/11/52 68/6/69
f 68/6/69 69/12/75 70/13/101
f 70/13/101 71/14/80 72/4/67
f 72/4/67 73/15/75 76/5/68
f 74/16/71 75/17/70 76/5/68
f 76/5/68 77/18/75 80/8/82
f 78/19/72 79/20/81 80/8/82
f 65/9/75 66/10/53 68/6/69
f 68/6/69 70/13/101 72/4/67
f 73/15/75 74/16/71 76/5/68
f 77/18/75 78/19/72 80/8/82
f 80/8/82 68/6/69 76/5/68
f 58/1/64 59/2/65 74/7/71
f 51/1/51 52/2/66 67/7/52
f 59/1/65 60/2/37 75/7/70
f 62/1/56 78/2/72 98/7/74
f 103/7/98 77/1/75 102/3/76
f 70/1/101 69/2/75 101/7/78
f 102/7/76 76/1/68 96/3/79
f 70/7/101 54/1/54 71/3/80
f 62/1/56 63/2/58 78/7/72
f 55/1/57 56/2/59 71/7/80
f 79/7/81 63/1/58 80/3/82
f 92/7/84 80/1/82 86/3/83
f 87/7/93 65/1/75 92/3/84
f 74/1/71 73/2/75 91/7/86
f 89/7/89 72/1/67 83/3/87
f 83/1/87 84/2/88 89/7/89
f 87/7/93 81/1/90 88/3/92
f 86/1/83 81/2/90 92/7/84
f 90/7/85 84/1/88 91/3/86
f 58/1/64 74/2/71 85/7/94
f 81/7/90 49/1/63 82/3/91
f 56/1/59 57/2/61 83/7/87
f 84/7/88 57/1/61 85/3/94
f 66/1/53 65/2/75 88/7/92
f 50/1/62 66/2/53 82/7/91
f 64/1/60 49/2/63 86/7/83
f 90/7/85 73/1/75 89/3/89
f 93/1/100 94/2/95 99/7/96
f 96/1/79 97/2/97 102/7/76
f 100/7/77 94/1/95 101/3/78
f 103/7/98 97/1/97 104/3/73
f 52/1/66 53/2/55 93/7/100
f 78/1/72 77/2/75 104/7/73
f 94/7/95 53/1/55 95/3/99
f 60/1/37 61/2/36 96/7/79
f 99/7/96 68/1/69 93/3/100
f 100/7/77 69/1/75 99/3/96
f 54/1/54 70/2/101 95/7/99
f 97/7/97 61/1/36 98/3/74
